0
SECTION
2
HEADER
9
$INSUNITS
70
4
9
$ACADVER
1
AC1014
9
$HANDSEED
5
FFFF
0
ENDSEC
0
SECTION
2
TABLES
0
TABLE
2
VPORT
5
8
100
AcDbSymbolTable
0
ENDTAB
0
TABLE
2
LTYPE
5
5
100
AcDbSymbolTable
0
LTYPE
5
14
100
AcDbSymbolTableRecord
100
AcDbLinetypeTableRecord
2
BYBLOCK
70
0
0
LTYPE
5
15
100
AcDbSymbolTableRecord
100
AcDbLinetypeTableRecord
2
BYLAYER
70
0
0
ENDTAB
0
TABLE
2
LAYER
5
2
100
AcDbSymbolTable
70
2
0
LAYER
5
50
100
AcDbSymbolTableRecord
100
AcDbLayerTableRecord
2
0
70
0
6
CONTINUOUS
0
ENDTAB
0
TABLE
2
STYLE
5
3
100
AcDbSymbolTable
70
1
0
STYLE
5
11
100
AcDbSymbolTableRecord
100
AcDbTextStyleTableRecord
2
STANDARD
70
0
0
ENDTAB
0
TABLE
2
VIEW
5
6
100
AcDbSymbolTable
70
0
0
ENDTAB
0
TABLE
2
UCS
5
7
100
AcDbSymbolTable
70
0
0
ENDTAB
0
TABLE
2
APPID
5
9
100
AcDbSymbolTable
70
2
0
APPID
5
12
100
AcDbSymbolTableRecord
100
AcDbRegAppTableRecord
2
ACAD
70
0
0
ENDTAB
0
TABLE
2
DIMSTYLE
5
A
100
AcDbSymbolTable
70
1
0
ENDTAB
0
TABLE
2
BLOCK_RECORD
5
1
100
AcDbSymbolTable
70
1
0
BLOCK_RECORD
5
1F
100
AcDbSymbolTableRecord
100
AcDbBlockTableRecord
2
*MODEL_SPACE
0
BLOCK_RECORD
5
1B
100
AcDbSymbolTableRecord
100
AcDbBlockTableRecord
2
*PAPER_SPACE
0
ENDTAB
0
ENDSEC
0
SECTION
2
BLOCKS
0
BLOCK
5
20
100
AcDbEntity
100
AcDbBlockBegin
2
*MODEL_SPACE
0
ENDBLK
5
21
100
AcDbEntity
100
AcDbBlockEnd
0
BLOCK
5
1C
100
AcDbEntity
100
AcDbBlockBegin
2
*PAPER_SPACE
0
ENDBLK
5
1D
100
AcDbEntity
100
AcDbBlockEnd
0
ENDSEC
0
SECTION
2
ENTITIES
0
CIRCLE
5
100
100
AcDbEntity
8
0
100
AcDbCircle
10
8.8339130235836802e-16
20
313.64673383114456
30
0
40
46.000000000000007
210
1.214010956127987e-17
220
-1.5653919965298378e-16
230
1
0
ELLIPSE
5
101
100
AcDbEntity
8
0
100
AcDbEllipse
10
0.027389809440018439
20
187.12510272867911
30
-7.1054273576010019e-14
11
-2.4647369745605515e-33
21
-14.350972984551184
31
0.0
40
0.87102108083237617
41
0
42
6.2831853071795862
0
ELLIPSE
5
102
100
AcDbEntity
8
0
100
AcDbEllipse
10
0.027389809440039943
20
186.8431086135538
30
0
11
0
21
-14.350972984551182
31
0.0
40
0.87102108083237606
41
0
42
6.2831853071795862
0
CIRCLE
5
103
100
AcDbEntity
8
0
100
AcDbCircle
10
8.0099193724961858e-16
20
313.64673383114439
30
-2.8421709430404007e-13
40
48.999999999999986
210
-0
220
9.9920072216264069e-16
230
1
0
ELLIPSE
5
104
100
AcDbEntity
8
0
100
AcDbEllipse
10
0.027389809440039943
20
186.8431086135538
30
0
11
0
21
-12.054817307022997
31
0.0
40
0.87102108083237606
41
0
42
6.2831853071795862
0
CIRCLE
5
105
100
AcDbEntity
8
0
100
AcDbCircle
10
2.0271983536617597e-16
20
313.64673383114445
30
-2.8421709430404007e-13
40
46.000000000000028
210
3.7570200046575795e-33
220
8.3266726846886721e-16
230
1
0
SPLINE
5
106
100
AcDbEntity
8
0
100
AcDbSpline
70
0
71
3
72
35
73
31
74
0
42
0.000000001
43
0.0000000001
44
0.0000000001
40
-3.1415926535897931
40
-3.1415926535897931
40
-3.1415926535897931
40
-3.1415926535897931
40
-2.5337416486703472
40
-2.5337416486703472
40
-2.5337416486703472
40
-1.8016631125262159
40
-1.8016631125262159
40
-1.8016631125262159
40
-1.0782639855184244
40
-1.0782639855184244
40
-1.0782639855184244
40
-0.44524371179196498
40
-0.44524371179196498
40
-0.44524371179196498
40
0.14371993182919629
40
0.14371993182919629
40
0.14371993182919629
40
0.76799930419587203
40
0.76799930419587203
40
0.76799930419587203
40
1.506949201181484
40
1.506949201181484
40
1.506949201181484
40
2.2414407619860359
40
2.2414407619860359
40
2.2414407619860359
40
2.8586793374805737
40
2.8586793374805737
40
2.8586793374805737
40
3.1415926535897931
40
3.1415926535897931
40
3.1415926535897931
40
3.1415926535897931
10
0.02738980944003799
20
204.19408171731425
30
7.9663903166111618e-16
10
-3.2031830068066287
20
204.19408171731425
30
7.9663903166111618e-16
10
-6.4106478113869239
20
203.02276025278192
30
7.461263329898575e-16
10
-8.9837120044952634
20
200.9675346407906
30
6.5394282856392193e-16
10
-12.082637650172636
20
198.49227911715792
30
5.4291962644596471e-16
10
-14.252480268621817
20
194.77044738472597
30
3.7153107607685509e-16
10
-15.079997865849471
20
190.72865682468307
30
1.822880568671253e-16
10
-15.897704543292905
20
186.73478510419361
30
-4.7113265729115237e-18
10
-15.411900241721304
20
182.43931294602743
30
-2.0743460595530835e-16
10
-13.704592869629488
20
178.78676709397718
30
-3.7669773248846967e-16
10
-12.210590264888824
20
175.59055702302089
30
-5.2481374022131291e-16
10
-9.7798210591024688
20
172.89415393187488
30
-6.4657597418314871e-16
10
-6.7975258282394542
20
171.26025747804141
30
-7.1897129155693758e-16
10
-4.0227908972661446
20
169.74007613679532
30
-7.863280756462917e-16
10
-0.78201048132396644
20
169.16703140503813
30
-8.1082581381892166e-16
10
2.3094118917389199
20
169.68066255685298
30
-7.8842572729293728e-16
10
5.5862036592412512
20
170.22509231335113
30
-7.646824757206966e-16
10
8.6517642419279603
20
171.97521824668775
30
-6.8818759332460329e-16
10
10.938918186677496
20
174.51122977380922
30
-5.7302403816675219e-16
10
13.646187154184267
20
177.51306763626553
30
-4.3670670815827844e-16
10
15.265007990660443
20
181.58969930912275
30
-2.4665418966548364e-16
10
15.497279816582836
20
185.76065742142487
30
-5.0828562497243312e-17
10
15.728150267541141
20
189.90645072412676
30
1.4381558202603772e-16
10
14.591329685485373
20
194.13450300348441
30
3.4230426570342686e-16
10
12.288260708743026
20
197.46753002129083
30
4.9510397274820441e-16
10
10.352849751926898
20
200.26847826677118
30
6.235109940746184e-16
10
7.5921086031274125
20
202.4260936032972
30
7.1921472721150858e-16
10
4.4665925764911876
20
203.46926294108971
30
7.6496964248024184e-16
10
3.0340021021519972
20
203.94740301258781
30
7.8594155726473557e-16
10
1.5310018146513629
20
204.19408171731425
30
7.9663903166111618e-16
10
0.027389809440041893
20
204.19408171731425
30
7.9663903166111618e-16
0
CIRCLE
5
107
100
AcDbEntity
8
0
100
AcDbCircle
10
1.3010426069827931e-17
20
287.20062896922747
30
0
40
124.69558872571659
210
0
220
0
230
1
0
ENDSEC
0
SECTION
2
OBJECTS
0
DICTIONARY
5
C
100
AcDbDictionary
3
ACAD_GROUP
350
D
3
ACAD_MLINESTYLE
350
17
0
DICTIONARY
5
D
100
AcDbDictionary
0
DICTIONARY
5
1A
330
C
100
AcDbDictionary
0
DICTIONARY
5
17
100
AcDbDictionary
0
ENDSEC
0
EOF
